<svg xmlns:xlink="http://www.w3.org/1999/xlink" xmlns="http://www.w3.org/2000/svg" viewBox="0 0 177 29" aria-hidden="true" width="177"  height="29" ><path fill="#4A5FF7" d="M47.3 19.44c0 3.36-1.85 5.4-4.6 5.4-2.83 0-4.68-2.04-4.68-5.4V8.1h-4.27v11.26c0 5.75 3.25 9.5 8.8 9.5 5.5 0 8.98-3.83 8.98-9.5V8.1H47.3zM59.94.04h-4.18v28.53h4.18zm23.23 8.08h-4.18v20.45h4.18zm18.19 0L95.5 23.14 89.6 8.12h-4.45l8.2 20.45h4.26l8.2-20.45h-4.46Zm48.34 8.32-2.46-.55c-1.51-.36-2.27-1.15-2.27-2.22 0-1.47 1.4-2.38 3.26-2.34 1.16 0 2.31.36 3.43.92a12.6 12.6 0 0 1 3.02 1.98V9.95c-.72-.52-3.3-2.26-6.65-2.26-4.61 0-7.4 3-7.4 6.34 0 3.12 2.27 4.67 5.25 5.38l2.4.56c2.1.47 3.14 1.23 3.14 2.65 0 1.43-1.24 2.78-3.5 2.78a8.6 8.6 0 0 1-4.03-1.11 12.3 12.3 0 0 1-2.7-1.87l-.08 4.36c.27.28 2.66 2.22 6.92 2.22 4.74 0 7.69-3.25 7.69-6.58 0-2.89-2.03-5.1-6.01-5.98Zm-33.98-8.55c-5.65 0-9.9 4.67-9.9 10.45 0 5.79 4.61 10.46 10.86 10.46 4.78 0 7.4-2.26 7.4-2.26v-4.16s-2.9 2.58-7.08 2.58c-3.78 0-6.25-2.1-6.89-5.03h15.09c.04-.52.08-1.07.08-1.59 0-5.78-4.06-10.45-9.56-10.45m-5.65 8.87c.52-2.93 2.51-5.07 5.65-5.07 3.1 0 4.98 2.14 5.46 5.07h-11.1ZM79.58 0l-1.5 2.59 1.5 2.58h3l1.5-2.58L82.58 0zM26.06 8.12h-.66l-8.25 13.52-.04-13.52h-4.73L4.17 21.6l-.03-.79.04-12.68H0v20.45h4.18L5.9 25.7l7.12-11.66v14.54h4.13v-.01h.02l8.82-14.46v14.47h4.14V8.12zm148.79 13.86-.96.85a9.9 9.9 0 0 1-2.61 1.71c-.87.37-1.94.56-3.17.56a6.4 6.4 0 0 1-3.1-.77 5.97 5.97 0 0 1-3.18-4.94c.9.27 1.75.5 2.56.7 1.3.3 2.65.45 4.02.45 1.32 0 2.59-.22 3.77-.65a7.4 7.4 0 0 0 3.06-1.98 4.96 4.96 0 0 0 1.28-3.42c0-1.26-.37-2.41-1.11-3.43a7.03 7.03 0 0 0-2.95-2.29A10.28 10.28 0 0 0 159.72 13a11 11 0 0 0-1.53 5.87c0 2.02.5 3.8 1.47 5.29a9.4 9.4 0 0 0 3.8 3.36c1.53.74 3.17 1.12 4.88 1.12 1.6 0 3.04-.29 4.3-.86 1.21-.55 2.4-1.33 3.51-2.3l.85-.75-2.15-2.74Zm-12.57-6a6.9 6.9 0 0 1 3.48-3.82c.9-.42 1.83-.64 2.76-.64 1.38 0 2.5.31 3.32.91a2.39 2.39 0 0 1 1.06 2.06c0 .5-.12 1.14-1.11 1.7-.96.55-2.1.82-3.38.82-1.85 0-3.91-.34-6.13-1.02ZM71.3 2.3h-4.14v5.78h-5.27v3.6h5.27v16.85h4.13V11.69h5.3v-3.6h-5.3V2.3Zm56.57 5.78h-.24v20.45h4.18V11.66h7.11v-3.6h-11.05z"></path></svg>